<mxfile host="app.diagrams.net" agent="Mozilla/5.0 (Windows NT 10.0; Win64; x64) AppleWebKit/537.36 (KHTML, like Gecko) Chrome/140.0.0.0 Safari/537.36" version="28.2.0">
  <diagram name="Página-1" id="6ZHZJBBJy62z64dll-nr">
    <mxGraphModel dx="1042" dy="1777" grid="1" gridSize="10" guides="1" tooltips="1" connect="1" arrows="1" fold="1" page="1" pageScale="1" pageWidth="827" pageHeight="1169" math="0" shadow="0">
      <root>
        <mxCell id="0" />
        <mxCell id="1" parent="0" />
        <mxCell id="Xjg_eXnGuDsfbfD2nWUl-10" style="edgeStyle=orthogonalEdgeStyle;rounded=0;orthogonalLoop=1;jettySize=auto;html=1;exitX=0.5;exitY=0;exitDx=0;exitDy=0;entryX=0;entryY=0.5;entryDx=0;entryDy=0;" edge="1" parent="1" source="14Huy46x-zWvjNbJQUB3-1" target="14Huy46x-zWvjNbJQUB3-5">
          <mxGeometry relative="1" as="geometry" />
        </mxCell>
        <mxCell id="14Huy46x-zWvjNbJQUB3-1" value="Contrato" style="swimlane;fontStyle=1;align=center;verticalAlign=top;childLayout=stackLayout;horizontal=1;startSize=26;horizontalStack=0;resizeParent=1;resizeParentMax=0;resizeLast=0;collapsible=1;marginBottom=0;whiteSpace=wrap;html=1;" parent="1" vertex="1">
          <mxGeometry x="150" y="90" width="160" height="170" as="geometry" />
        </mxCell>
        <mxCell id="14Huy46x-zWvjNbJQUB3-2" value="+ SalarioBase:&amp;nbsp;float&lt;div&gt;&lt;br&gt;&lt;div&gt;+ beneficios:float&lt;/div&gt;&lt;/div&gt;" style="text;strokeColor=none;fillColor=none;align=left;verticalAlign=top;spacingLeft=4;spacingRight=4;overflow=hidden;rotatable=0;points=[[0,0.5],[1,0.5]];portConstraint=eastwest;whiteSpace=wrap;html=1;" parent="14Huy46x-zWvjNbJQUB3-1" vertex="1">
          <mxGeometry y="26" width="160" height="74" as="geometry" />
        </mxCell>
        <mxCell id="14Huy46x-zWvjNbJQUB3-3" value="" style="line;strokeWidth=1;fillColor=none;align=left;verticalAlign=middle;spacingTop=-1;spacingLeft=3;spacingRight=3;rotatable=0;labelPosition=right;points=[];portConstraint=eastwest;strokeColor=inherit;" parent="14Huy46x-zWvjNbJQUB3-1" vertex="1">
          <mxGeometry y="100" width="160" height="8" as="geometry" />
        </mxCell>
        <mxCell id="14Huy46x-zWvjNbJQUB3-4" value="+ salario():float&lt;div&gt;&lt;br&gt;&lt;/div&gt;&lt;div&gt;+ remuneracao():float&lt;/div&gt;" style="text;strokeColor=none;fillColor=none;align=left;verticalAlign=top;spacingLeft=4;spacingRight=4;overflow=hidden;rotatable=0;points=[[0,0.5],[1,0.5]];portConstraint=eastwest;whiteSpace=wrap;html=1;" parent="14Huy46x-zWvjNbJQUB3-1" vertex="1">
          <mxGeometry y="108" width="160" height="62" as="geometry" />
        </mxCell>
        <mxCell id="14Huy46x-zWvjNbJQUB3-5" value="«interface»&lt;br&gt;&lt;b&gt;+ Remuneração&lt;/b&gt;" style="html=1;whiteSpace=wrap;" parent="1" vertex="1">
          <mxGeometry x="330" y="-50" width="110" height="70" as="geometry" />
        </mxCell>
        <mxCell id="Xjg_eXnGuDsfbfD2nWUl-11" style="edgeStyle=orthogonalEdgeStyle;rounded=0;orthogonalLoop=1;jettySize=auto;html=1;exitX=0.5;exitY=0;exitDx=0;exitDy=0;entryX=1;entryY=0.5;entryDx=0;entryDy=0;" edge="1" parent="1" source="14Huy46x-zWvjNbJQUB3-6" target="14Huy46x-zWvjNbJQUB3-5">
          <mxGeometry relative="1" as="geometry">
            <mxPoint x="470" y="-20" as="targetPoint" />
          </mxGeometry>
        </mxCell>
        <mxCell id="14Huy46x-zWvjNbJQUB3-6" value="Estagio" style="swimlane;fontStyle=1;align=center;verticalAlign=top;childLayout=stackLayout;horizontal=1;startSize=26;horizontalStack=0;resizeParent=1;resizeParentMax=0;resizeLast=0;collapsible=1;marginBottom=0;whiteSpace=wrap;html=1;" parent="1" vertex="1">
          <mxGeometry x="470" y="90" width="160" height="170" as="geometry" />
        </mxCell>
        <mxCell id="14Huy46x-zWvjNbJQUB3-7" value="+ bolsaEstagio:float&lt;div&gt;&lt;br&gt;&lt;/div&gt;&lt;div&gt;+ auxilio:float&lt;/div&gt;" style="text;strokeColor=none;fillColor=none;align=left;verticalAlign=top;spacingLeft=4;spacingRight=4;overflow=hidden;rotatable=0;points=[[0,0.5],[1,0.5]];portConstraint=eastwest;whiteSpace=wrap;html=1;" parent="14Huy46x-zWvjNbJQUB3-6" vertex="1">
          <mxGeometry y="26" width="160" height="74" as="geometry" />
        </mxCell>
        <mxCell id="14Huy46x-zWvjNbJQUB3-8" value="" style="line;strokeWidth=1;fillColor=none;align=left;verticalAlign=middle;spacingTop=-1;spacingLeft=3;spacingRight=3;rotatable=0;labelPosition=right;points=[];portConstraint=eastwest;strokeColor=inherit;" parent="14Huy46x-zWvjNbJQUB3-6" vertex="1">
          <mxGeometry y="100" width="160" height="8" as="geometry" />
        </mxCell>
        <mxCell id="14Huy46x-zWvjNbJQUB3-9" value="+ Remuneração()&lt;div&gt;&lt;br&gt;&lt;/div&gt;&lt;div&gt;+ bolsa():float&lt;/div&gt;" style="text;strokeColor=none;fillColor=none;align=left;verticalAlign=top;spacingLeft=4;spacingRight=4;overflow=hidden;rotatable=0;points=[[0,0.5],[1,0.5]];portConstraint=eastwest;whiteSpace=wrap;html=1;" parent="14Huy46x-zWvjNbJQUB3-6" vertex="1">
          <mxGeometry y="108" width="160" height="62" as="geometry" />
        </mxCell>
        <mxCell id="14Huy46x-zWvjNbJQUB3-10" value="Folha" style="swimlane;fontStyle=1;align=center;verticalAlign=top;childLayout=stackLayout;horizontal=1;startSize=26;horizontalStack=0;resizeParent=1;resizeParentMax=0;resizeLast=0;collapsible=1;marginBottom=0;whiteSpace=wrap;html=1;" parent="1" vertex="1">
          <mxGeometry x="310" y="330" width="170" height="100" as="geometry" />
        </mxCell>
        <mxCell id="14Huy46x-zWvjNbJQUB3-11" value="- saldo: float" style="text;strokeColor=none;fillColor=none;align=left;verticalAlign=top;spacingLeft=4;spacingRight=4;overflow=hidden;rotatable=0;points=[[0,0.5],[1,0.5]];portConstraint=eastwest;whiteSpace=wrap;html=1;" parent="14Huy46x-zWvjNbJQUB3-10" vertex="1">
          <mxGeometry y="26" width="170" height="26" as="geometry" />
        </mxCell>
        <mxCell id="14Huy46x-zWvjNbJQUB3-12" value="" style="line;strokeWidth=1;fillColor=none;align=left;verticalAlign=middle;spacingTop=-1;spacingLeft=3;spacingRight=3;rotatable=0;labelPosition=right;points=[];portConstraint=eastwest;strokeColor=inherit;" parent="14Huy46x-zWvjNbJQUB3-10" vertex="1">
          <mxGeometry y="52" width="170" height="8" as="geometry" />
        </mxCell>
        <mxCell id="14Huy46x-zWvjNbJQUB3-13" value="+ calcular(f:Funcionario):void" style="text;strokeColor=none;fillColor=none;align=left;verticalAlign=top;spacingLeft=4;spacingRight=4;overflow=hidden;rotatable=0;points=[[0,0.5],[1,0.5]];portConstraint=eastwest;whiteSpace=wrap;html=1;" parent="14Huy46x-zWvjNbJQUB3-10" vertex="1">
          <mxGeometry y="60" width="170" height="40" as="geometry" />
        </mxCell>
      </root>
    </mxGraphModel>
  </diagram>
</mxfile>
